<svg width="1000" height="1000" viewBox="0 0 1000 1000" fill="none" xmlns="http://www.w3.org/2000/svg">
<circle cx="500" cy="500" r="485" fill="white" stroke="#002CFF" stroke-width="30"/>
<path d="M114.998 640C105.346 664.822 69.9984 755.296 69.9984 755.296C92.2147 792.635 119.156 826.835 149.998 857.07L194.998 741.774C200 730.5 220 640 320 640C420 640 474.998 797.5 600 810C725.002 822.5 787.234 727.907 749.998 565C735.141 500 705 425 709.998 390C714.997 355 734.353 327.522 765 300C816.804 253.48 938.743 260 938.743 260C917.73 221.668 891.84 186.39 861.907 155C765 135 665 180 644.998 260C624.997 340 744.783 425 689.998 565C660.65 640 615 729.378 469.998 675C405 650.625 395 615 330 555C265 495 149.998 550 114.998 640Z" fill="#002CFF"/>
</svg>
